<svg width="56" height="46" viewBox="0 0 56 46" fill="none" xmlns="http://www.w3.org/2000/svg">
<path d="M14.355 2.57833V5.15665H15.1912H16.0274V8.78023V12.4038H9.54675H3.06611V14.4247V16.4455H1.53306H0V30.8005V45.1555L7.49803 45.1694C11.6094 45.1694 19.2468 45.1973 24.4592 45.2391C29.6716 45.267 38.7166 45.253 44.5701 45.1973L55.19 45.1137V30.7726V16.4455H54.4932H53.7963V14.4247V12.4038L46.7303 12.3759L39.6504 12.3341L39.6086 8.73842L39.5807 5.15665H40.2079H40.835V2.57833V3.8147e-06H27.595H14.355V2.57833ZM39.4413 2.57833V3.76296H27.595H15.7487V2.57833V1.39369H27.595H39.4413V2.57833ZM21.2955 7.55379L21.2537 9.96487H19.3722H17.4908L17.449 7.55379L17.4211 5.15665H19.3722H21.3234L21.2955 7.55379ZM32.7516 7.5956V10.0345L27.7065 10.0067L22.6474 9.96487L22.6056 7.55379L22.5777 5.15665H27.6647H32.7516V7.5956ZM38.2985 7.55379L38.2567 9.96487L36.208 10.0067L34.1453 10.0485V7.5956V5.15665H36.2359H38.3264L38.2985 7.55379ZM38.2567 11.4143C38.2985 11.484 38.2846 12.0833 38.2428 12.7383L38.1452 13.9369H27.8737H17.6023L17.5047 12.7383C17.4629 12.0833 17.449 11.484 17.4908 11.4143C17.5465 11.3446 21.7276 11.2889 27.8737 11.2889C34.0199 11.2889 38.201 11.3446 38.2567 11.4143ZM16.0274 15.1215V16.4455H10.2436H4.4598V15.1215V13.7975H10.2436H16.0274V15.1215ZM52.4026 15.1215V16.4455H46.0613H39.7201V15.1215V13.7975H46.0613H52.4026V15.1215ZM38.3264 15.888V16.4455H36.0965H33.8666V17.3514V18.2573H27.595H21.3234V17.3514V16.4455H19.3722H17.4211V15.888V15.3306H27.8737H38.3264V15.888ZM3.48422 19.5813V21.3374L2.41108 21.2955L1.324 21.2537L1.28219 19.5395L1.24038 17.8392H2.36927H3.48422V19.5813ZM7.91614 19.5395L7.87433 21.2537H6.41096H4.94759L4.90578 19.5395L4.86397 17.8392H6.41096H7.95795L7.91614 19.5395ZM12.3341 19.5813V21.2537L10.8429 21.2955L9.3377 21.3374V19.5813V17.8253L10.8429 17.8671L12.3341 17.9089V19.5813ZM16.7242 19.5813V21.3374L15.233 21.2955L13.7278 21.2537L13.686 19.5395L13.6442 17.8392H15.1912H16.7242V19.5813ZM19.9018 19.5395L19.86 21.2537L18.996 21.2955L18.1179 21.3374V19.5813V17.8392H19.0238H19.9437L19.9018 19.5395ZM37.4902 19.5813V21.3374L36.417 21.2955L35.33 21.2537L35.2882 19.5395L35.2463 17.8392H36.3752H37.4902V19.5813ZM41.9221 19.5395L41.8803 21.2537L40.389 21.2955L38.8839 21.3374V19.5813V17.8392H40.4169H41.9639L41.9221 19.5395ZM46.2704 19.5813V21.3234H44.807H43.3437V19.5813V17.8392H44.807H46.2704V19.5813ZM50.7023 19.5395L50.6605 21.2537H49.1971H47.7338L47.692 19.5395L47.6502 17.8392H49.1971H50.7441L50.7023 19.5395ZM53.9078 19.5395L53.866 21.2537L53.0019 21.2955L52.1239 21.3374V19.5813V17.8392H53.0298H53.9496L53.9078 19.5395ZM33.8666 31.7064V43.7618H33.4485H33.0304V35.985C33.0304 27.6926 33.0025 27.386 32.3196 26.048C31.8876 25.1839 30.898 24.278 29.8528 23.7902C29.0026 23.3861 28.7936 23.3443 27.595 23.3443C26.3964 23.3443 26.1874 23.3861 25.3512 23.7902C24.2502 24.3338 23.2606 25.3372 22.745 26.4522L22.3687 27.2466L22.3269 35.4972L22.2851 43.7618H21.8112H21.3234V31.7064V19.651H27.595H33.8666V31.7064ZM19.9018 33.1976L19.9297 43.7618H10.592H1.25432V33.2673C1.25432 27.4835 1.29613 22.7171 1.35188 22.6753C1.39369 22.6195 5.58868 22.5917 10.6478 22.6056L19.86 22.6474L19.9018 33.1976ZM53.9078 33.1976L53.9357 43.7618H44.598H35.2603V33.2673C35.2603 27.4835 35.3021 22.7171 35.3578 22.6753C35.3996 22.6195 39.5946 22.5917 44.6537 22.6056L53.866 22.6474L53.9078 33.1976ZM29.5601 25.1839C29.9782 25.4209 30.5217 25.8668 30.7587 26.1874C31.6367 27.3163 31.6367 27.386 31.6367 35.985V43.7618H27.6647H23.6927V35.7063V27.6508L24.055 26.926C24.4731 26.0759 25.4348 25.1839 26.2431 24.8913C27.1908 24.5428 28.6542 24.6683 29.5601 25.1839Z" fill="#4D2C19"/>
<path d="M5.29688 27.6646V30.8004H5.99372H6.69056V27.6646V24.5288H5.99372H5.29688V27.6646Z" fill="#4D2C19"/>
<path d="M9.89453 27.6646V30.8004H10.5914H11.2882V27.6646V24.5288H10.5914H9.89453V27.6646Z" fill="#4D2C19"/>
<path d="M15.0508 27.6646V30.8004H15.7476H16.4445V27.6646V24.5288H15.7476H15.0508V27.6646Z" fill="#4D2C19"/>
<path d="M39.3008 27.6646V30.8004H39.9976H40.6945V27.6646V24.5288H39.9976H39.3008V27.6646Z" fill="#4D2C19"/>
<path d="M43.9023 27.6646V30.8004H44.5992H45.296V27.6646V24.5288H44.5992H43.9023V27.6646Z" fill="#4D2C19"/>
<path d="M49.0586 27.6641V30.7999H49.7554H50.4523V27.6641V24.5283H49.7554H49.0586V27.6641Z" fill="#4D2C19"/>
</svg>
